# xmcd CD database file
#
# Track frame offsets:
#	182
#	11655
#	24035
#	36682
#	46947
#	56172
#	69045
#	80777
#	91920
#	104875
#	115320
#	126285
#	137245
#	148737
#
# Disc length: 2137 seconds
#
# Revision: 4
# Processed by: cddbd v1.5.1PL0 Copyright (c) Steve Scherf et al.
# Submitted via: CDex 1.51
#
DISCID=cb08570e
DTITLE=Patsy Cline - Walkin' After Midnight and More Country Memories
DYEAR=1990
DGENRE=Country
TTITLE0=Walkin' After Midnight
TTITLE1=A Poor Man's Roses
TTITLE2=Just A Closer Walk With Thee
TTITLE3=Turn The Cards Slowly
TTITLE4=Try Again
TTITLE5=Yes, I Understand
TTITLE6=Today, Tomorrow, Forever
TTITLE7=Just Out Of Reach
TTITLE8=Fingerprints
TTITLE9=I Love You Honey
TTITLE10=I Can't Forget You
TTITLE11=Stop The World And Let Me Off
TTITLE12=I've Loved And Lost Again
TTITLE13=Cry Not For Me
EXTD=YEAR: 1990
EXTT0=
EXTT1=
EXTT2=
EXTT3=
EXTT4=
EXTT5=
EXTT6=
EXTT7=
EXTT8=
EXTT9=
EXTT10=
EXTT11=
EXTT12=
EXTT13=
PLAYORDER=
